<svg xmlns="http://www.w3.org/2000/svg" width="1200" height="1020" viewBox="0 0 1200 1020">
  <defs>
    <style>
      .bg { fill: #f6f7f9; }
      .card { fill: #ffffff; stroke: #cfd6df; stroke-width: 2; }
      .muted { fill: #6b7280; font: 600 14px ui-sans-serif, system-ui, -apple-system, Segoe UI, Roboto; letter-spacing: .08em; }
      .title { fill: #0f172a; font: 800 26px ui-sans-serif, system-ui, -apple-system, Segoe UI, Roboto; }
      .text { fill: #111827; font: 600 16px ui-sans-serif, system-ui, -apple-system, Segoe UI, Roboto; }
      .small { fill: #374151; font: 500 14px ui-sans-serif, system-ui, -apple-system, Segoe UI, Roboto; }
      .pill { fill: #eef2ff; stroke: #c7d2fe; stroke-width: 1; }
      .pillText { fill: #3730a3; font: 700 13px ui-sans-serif, system-ui, -apple-system, Segoe UI, Roboto; }
      .divider { stroke: #e5e7eb; stroke-width: 2; }
    </style>
  </defs>

  <rect class="bg" x="0" y="0" width="1200" height="1020" rx="24"/>

  <text class="muted" x="72" y="62">ÁREA DO CLIENTE</text>
  <text class="title" x="72" y="100">Pedido #1778003167945</text>
  <rect class="pill" x="444" y="75" width="92" height="30" rx="15"/>
  <text class="pillText" x="470" y="96">PAGO</text>

  <text class="small" x="72" y="132">Data: 05/05/2026 14:32 • Pag.: Pix (aprovado)</text>

  <rect class="card" x="72" y="154" width="1056" height="56" rx="14"/>
  <text class="text" x="92" y="189">Ações:  Voltar</text>
  <text class="text" x="230" y="189">Atualizar</text>
  <text class="text" x="382" y="189">Copiar pedido</text>
  <text class="text" x="548" y="189">Copiar JSON</text>
  <text class="text" x="690" y="189">Baixar JSON</text>

  <text class="muted" x="72" y="242">STATUS DO PEDIDO</text>
  <rect class="card" x="72" y="260" width="1056" height="92" rx="14"/>
  <text class="small" x="92" y="292">Timeline (somente com dados reais do payload)</text>
  <rect class="pill" x="92" y="306" width="150" height="30" rx="15"/>
  <text class="pillText" x="112" y="327">Pedido criado</text>
  <rect class="pill" x="260" y="306" width="190" height="30" rx="15"/>
  <text class="pillText" x="280" y="327">Pagamento confirmado</text>
  <rect class="pill" x="468" y="306" width="150" height="30" rx="15"/>
  <text class="pillText" x="498" y="327">Status atual</text>
  <text class="small" x="648" y="327">Enviado/Entregue: só se vier no status</text>

  <text class="muted" x="72" y="394">DADOS FISCAIS</text>
  <rect class="card" x="72" y="412" width="1056" height="72" rx="14"/>
  <text class="small" x="92" y="446">CPF/CNPJ: 25.231.575/0001-46 • Inscrição: 258076992 • Cobrança (se existir): —</text>

  <text class="muted" x="72" y="538">ITENS DO PEDIDO (PRINCIPAL)</text>
  <rect class="card" x="72" y="556" width="690" height="344" rx="14"/>
  <line class="divider" x1="92" y1="590" x2="742" y2="590"/>
  <text class="small" x="92" y="583">Mobile: cards/lista • Desktop: tabela</text>
  <rect class="card" x="92" y="608" width="650" height="64" rx="12"/>
  <rect class="card" x="92" y="682" width="650" height="64" rx="12"/>
  <rect class="card" x="92" y="756" width="650" height="64" rx="12"/>
  <rect class="card" x="92" y="830" width="650" height="56" rx="12"/>
  <text class="small" x="112" y="642">Produto A • Qtd 2 x R$ 10,00</text>
  <text class="small" x="632" y="642">R$ 20,00</text>
  <text class="small" x="112" y="716">Produto B • Qtd 1 x R$ 50,00</text>
  <text class="small" x="632" y="716">R$ 50,00</text>
  <text class="small" x="112" y="790">Produto C • Qtd 2 x R$ 15,00</text>
  <text class="small" x="632" y="790">R$ 30,00</text>
  <text class="small" x="112" y="864">+ Itens…</text>

  <text class="muted" x="792" y="538">SIDEBAR (3 CARDS)</text>
  <rect class="card" x="792" y="556" width="336" height="120" rx="14"/>
  <text class="text" x="812" y="588">Totais</text>
  <text class="small" x="812" y="616">Subtotal • Desconto • Frete • Taxas</text>
  <text class="small" x="1018" y="616">R$ ...</text>

  <rect class="card" x="792" y="692" width="336" height="168" rx="14"/>
  <text class="text" x="812" y="724">Pagamento</text>
  <text class="small" x="812" y="752">Método: Pix</text>
  <text class="small" x="812" y="776">Status: Aprovado</text>
  <line class="divider" x1="812" y1="798" x2="1108" y2="798"/>
  <text class="small" x="812" y="828">Pix: botão Copiar + “copia e cola”</text>

  <rect class="card" x="792" y="876" width="336" height="124" rx="14"/>
  <text class="text" x="812" y="908">Entrega</text>
  <text class="small" x="812" y="936">Rua X, 123 • CEP ...</text>
  <text class="small" x="812" y="960">Frete: PAC • 3 dias • R$ 12,90</text>
</svg>
